<?xml version="1.0" encoding="UTF-8" standalone="no"?>
<svg
   xmlns:dc="http://purl.org/dc/elements/1.1/"
   xmlns:cc="http://creativecommons.org/ns#"
   xmlns:rdf="http://www.w3.org/1999/02/22-rdf-syntax-ns#"
   xmlns:svg="http://www.w3.org/2000/svg"
   xmlns="http://www.w3.org/2000/svg"
   xmlns:sodipodi="http://sodipodi.sourceforge.net/DTD/sodipodi-0.dtd"
   xmlns:inkscape="http://www.inkscape.org/namespaces/inkscape"
   width="1.6179452in"
   height="1.2585632in"
   viewBox="0 0 116.49219 90.616273"
   version="1.1"
   id="svg20"
   sodipodi:docname="mc_vrt_pos.svg"
   inkscape:version="1.0.2 (e86c870879, 2021-01-15, custom)">
  <metadata
     id="metadata26">
    <rdf:RDF>
      <cc:Work
         rdf:about="">
        <dc:format>image/svg+xml</dc:format>
        <dc:type
           rdf:resource="http://purl.org/dc/dcmitype/StillImage" />
        <dc:title></dc:title>
      </cc:Work>
    </rdf:RDF>
  </metadata>
  <defs
     id="defs24" />
  <sodipodi:namedview
     pagecolor="#ffffff"
     bordercolor="#666666"
     borderopacity="1"
     objecttolerance="10"
     gridtolerance="10"
     guidetolerance="10"
     inkscape:pageopacity="0"
     inkscape:pageshadow="2"
     inkscape:window-width="2880"
     inkscape:window-height="1526"
     id="namedview22"
     showgrid="false"
     inkscape:zoom="6.2782895"
     inkscape:cx="77.662028"
     inkscape:cy="60.067135"
     inkscape:window-x="-11"
     inkscape:window-y="1608"
     inkscape:window-maximized="1"
     inkscape:current-layer="g18" />
  <g
     id="g18"
     transform="translate(-15.154613,-15.157147)">
    <rect
       width="146.8024"
       height="120.4146"
       style="fill:none"
       id="rect2"
       x="0"
       y="0" />
    <g
       id="g16">
      <path
         d="m 358.94359,351.0513 v -5.9993 a 3.558,3.558 0 0 0 -3.7594,-3.7994 3.70192,3.70192 0 0 0 -3.3595,1.6997 3.511,3.511 0 0 0 -3.1596,-1.6997 3.16116,3.16116 0 0 0 -2.7996,1.4198 v -1.1798 h -2.0798 v 9.5587 h 2.0997 v -5.2994 a 2.23566,2.23566 0 0 1 2.3397,-2.5396 c 1.3798,0 2.0798,0.8999 2.0798,2.5196 v 5.3194 h 2.0997 v -5.2994 a 2.25437,2.25437 0 0 1 2.3397,-2.5396 c 1.41971,0 2.0996,0.8999 2.0996,2.5196 v 5.3194 z m 31.0758,-9.5587 h -3.3995 v -2.8996 h -2.0997 v 2.8996 h -1.9398 v 1.8997 h 1.9398 v 4.3594 c 0,2.2196 0.8599,3.5396 3.3195,3.5396 a 4.88466,4.88466 0 0 0 2.5996,-0.74 l -0.5998,-1.7798 a 3.83859,3.83859 0 0 1 -1.8398,0.54 c -1.0399,0 -1.3798,-0.6401 -1.3798,-1.5997 v -4.3195 h 3.3995 z m 17.73761,-0.24 a 2.81917,2.81917 0 0 0 -2.51961,1.3998 v -1.1598 h -2.0598 v 9.5587 h 2.0797 v -5.3594 c 0,-1.5797 0.6799,-2.4596 2.0399,-2.4596 a 3.38832,3.38832 0 0 1 1.2997,0.24 l 0.6399,-1.9598 a 4.44615,4.44615 0 0 0 -1.47979,-0.2599 z m -26.81631,0.9998 a 7.14807,7.14807 0 0 0 -3.8995,-0.9998 c -2.4197,0 -3.9794,1.1598 -3.9794,3.0595 0,1.5599 1.1598,2.5198 3.2994,2.8197 l 0.9799,0.1399 c 1.1398,0.1598 1.6798,0.4599 1.6798,0.9998 0,0.7399 -0.76,1.16 -2.1797,1.16 a 5.09159,5.09159 0 0 1 -3.1796,-1 l -0.9798,1.6198 a 6.89734,6.89734 0 0 0 4.1394,1.24 c 2.7596,0 4.3593,-1.3 4.3593,-3.1197 0,-1.6798 -1.2597,-2.5597 -3.3394,-2.8597 l -0.9798,-0.14 c -0.9,-0.1199 -1.6198,-0.2997 -1.6198,-0.9396 0,-0.7 0.6797,-1.12 1.8197,-1.12 a 6.16291,6.16291 0 0 1 2.9796,0.8199 z m 55.71231,-0.9998 a 2.81917,2.81917 0 0 0 -2.51961,1.3998 v -1.1598 h -2.0597 v 9.5587 h 2.0796 v -5.3594 c 0,-1.5797 0.68,-2.4596 2.03971,-2.4596 a 3.3889,3.3889 0 0 1 1.3,0.24 l 0.63989,-1.9598 a 4.44671,4.44671 0 0 0 -1.47989,-0.2599 z m -26.79641,5.0191 a 4.82943,4.82943 0 0 0 5.0995,5.0196 5.00684,5.00684 0 0 0 3.4394,-1.14 l -0.9998,-1.6798 a 4.20185,4.20185 0 0 1 -2.49969,0.8599 3.06518,3.06518 0 0 1 0,-6.1191 4.2013,4.2013 0 0 1 2.49969,0.86 l 0.9998,-1.6799 a 5.00768,5.00768 0 0 0 -3.4394,-1.1398 4.8293,4.8293 0 0 0 -5.0995,5.0191 z m 19.47741,0 v -4.7791 h -2.07971 v 1.1598 a 3.62617,3.62617 0 0 0 -3.0196,-1.3998 5.02538,5.02538 0 0 0 0,10.0387 3.6263,3.6263 0 0 0 3.0196,-1.4 v 1.16 h 2.07971 z m -7.739,0 a 2.89437,2.89437 0 1 1 2.89979,3.0597 2.86746,2.86746 0 0 1 -2.89979,-3.0597 z m -25.09641,-5.0191 a 5.02359,5.02359 0 0 0 0.14,10.0387 5.80955,5.80955 0 0 0 3.91941,-1.34 l -1.01991,-1.5397 a 4.55355,4.55355 0 0 1 -2.7796,0.9998 2.65471,2.65471 0 0 1 -2.8596,-2.3398 h 7.09911 c 0.02,-0.2598 0.0399,-0.5198 0.0399,-0.7999 -0.0199,-2.9794 -1.8597,-5.0191 -4.5393,-5.0191 z m -0.0401,1.8597 a 2.37413,2.37413 0 0 1 2.4197,2.3197 h -4.9593 a 2.46089,2.46089 0 0 1 2.5396,-2.3197 z m 52.1729,3.1594 v -8.6185 h -2.0798 v 4.9992 a 3.62611,3.62611 0 0 0 -3.0195,-1.3998 5.02537,5.02537 0 0 0 0,10.0387 3.62624,3.62624 0 0 0 3.0195,-1.4 v 1.16 h 2.0798 z m 3.4668,3.3943 a 0.95392,0.95392 0 0 1 0.3762,0.0746 0.97593,0.97593 0 0 1 0.3074,0.2037 0.95726,0.95726 0 0 1 0.2071,0.3027 0.93387,0.93387 0 0 1 0,0.7371 0.96452,0.96452 0 0 1 -0.2071,0.3015 0.998,0.998 0 0 1 -0.3074,0.2048 0.93913,0.93913 0 0 1 -0.3762,0.0758 0.96809,0.96809 0 0 1 -0.8976,-0.5821 0.93625,0.93625 0 0 1 0,-0.7371 0.96319,0.96319 0 0 1 0.2062,-0.3027 0.94913,0.94913 0 0 1 0.3085,-0.2037 0.98157,0.98157 0 0 1 0.3829,-0.0746 z m 0,1.6906 a 0.70738,0.70738 0 0 0 0.2866,-0.0582 0.7542,0.7542 0 0 0 0.2327,-0.1584 0.74473,0.74473 0 0 0 0,-1.048 0.73833,0.73833 0 0 0 -0.2327,-0.157 0.71686,0.71686 0 0 0 -0.2866,-0.0571 0.74733,0.74733 0 0 0 -0.29219,0.0571 0.7299,0.7299 0 0 0 -0.23631,0.157 0.74447,0.74447 0 0 0 0,1.048 0.745,0.745 0 0 0 0.23631,0.1584 0.73739,0.73739 0 0 0 0.29219,0.0582 z m 0.0559,-1.1854 a 0.40175,0.40175 0 0 1 0.2621,0.0758 0.253,0.253 0 0 1 0.0919,0.2061 0.23989,0.23989 0 0 1 -0.0733,0.1803 0.3496,0.3496 0 0 1 -0.2085,0.0874 l 0.2888,0.333 h -0.2258 l -0.2678,-0.3307 h -0.0862 v 0.3307 h -0.1886 v -0.8826 z m -0.2188,0.1655 v 0.2352 h 0.2166 a 0.21318,0.21318 0 0 0 0.1188,-0.0293 0.0996,0.0996 0 0 0 0.0441,-0.0895 0.09807,0.09807 0 0 0 -0.0441,-0.0875 0.21492,0.21492 0 0 0 -0.1188,-0.0289 z m -11.0428,-4.065 a 2.89423,2.89423 0 1 1 2.89951,3.0597 2.86735,2.86735 0 0 1 -2.89951,-3.0597 z m -70.2304,0 v -4.7791 h -2.0798 v 1.1598 a 3.62617,3.62617 0 0 0 -3.0196,-1.3998 5.02538,5.02538 0 0 0 0,10.0387 3.6263,3.6263 0 0 0 3.0196,-1.4 v 1.16 h 2.0798 z m -7.7389,0 a 2.89423,2.89423 0 1 1 2.8995,3.0597 2.86735,2.86735 0 0 1 -2.8995,-3.0597 z"
         transform="translate(-322.59839,-245.7927)"
         style="fill:#231f20"
         id="path4" />
      <g
         id="g14">
        <rect
           x="57.651501"
           y="22.853701"
           width="31.5"
           height="56.6064"
           style="fill:#ff5f00"
           id="rect6" />
        <path
           d="M 382.25009,296.9496 A 35.93751,35.93751 0 0 1 396,268.6464 a 36,36 0 1 0 0,56.6064 35.938,35.938 0 0 1 -13.74991,-28.3032 z"
           transform="translate(-322.59839,-245.7927)"
           style="fill:#eb001b"
           id="path8" />
        <path
           d="M 454.24519,296.9496 A 35.99866,35.99866 0 0 1 396,325.2528 a 36.0052,36.0052 0 0 0 0,-56.6064 35.99866,35.99866 0 0 1 58.24519,28.3032 z"
           transform="translate(-322.59839,-245.7927)"
           style="fill:#f79e1b"
           id="path10" />
        <path
           d="m 450.81019,319.2565 v -1.1589 h 0.4673 v -0.2361 h -1.1901 v 0.2361 h 0.4675 v 1.1589 z m 2.3105,0 v -1.3973 h -0.3648 l -0.4196,0.9611 -0.4197,-0.9611 h -0.365 v 1.3973 h 0.2576 v -1.054 l 0.3935,0.9087 h 0.2671 l 0.3935,-0.911 v 1.0563 z"
           transform="translate(-322.59839,-245.7927)"
           style="fill:#f79e1b"
           id="path12" />
      </g>
    </g>
  </g>
</svg>
