<?xml version="1.0" encoding="UTF-8" standalone="no"?>
<svg
   xmlns:dc="http://purl.org/dc/elements/1.1/"
   xmlns:cc="http://creativecommons.org/ns#"
   xmlns:rdf="http://www.w3.org/1999/02/22-rdf-syntax-ns#"
   xmlns:svg="http://www.w3.org/2000/svg"
   xmlns="http://www.w3.org/2000/svg"
   xmlns:sodipodi="http://sodipodi.sourceforge.net/DTD/sodipodi-0.dtd"
   xmlns:inkscape="http://www.inkscape.org/namespaces/inkscape"
   version="1.1"
   id="svg2"
   xml:space="preserve"
   width="159.0392"
   height="51.596397"
   viewBox="0 0 159.0392 51.596398"
   sodipodi:docname="VISA.svg"
   inkscape:version="1.0.2 (e86c870879, 2021-01-15, custom)"><metadata
     id="metadata8"><rdf:RDF><cc:Work
         rdf:about=""><dc:format>image/svg+xml</dc:format><dc:type
           rdf:resource="http://purl.org/dc/dcmitype/StillImage" /><dc:title></dc:title></cc:Work></rdf:RDF></metadata><defs
     id="defs6" /><sodipodi:namedview
     pagecolor="#ffffff"
     bordercolor="#666666"
     borderopacity="1"
     objecttolerance="10"
     gridtolerance="10"
     guidetolerance="10"
     inkscape:pageopacity="0"
     inkscape:pageshadow="2"
     inkscape:window-width="2880"
     inkscape:window-height="1526"
     id="namedview4"
     showgrid="false"
     inkscape:zoom="5.3340861"
     inkscape:cx="79.517864"
     inkscape:cy="25.799331"
     inkscape:window-x="-11"
     inkscape:window-y="1608"
     inkscape:window-maximized="1"
     inkscape:current-layer="g10" /><g
     id="g10"
     inkscape:groupmode="layer"
     inkscape:label="ink_ext_XXXXXX"
     transform="matrix(1.3333333,0,0,-1.3333333,-14.9688,120.286)"><g
       id="g12"
       transform="scale(0.1)"><path
         d="M 629.348,521.605 H 532.02 l 60.832,373.848 h 97.336 l -60.84,-373.848"
         style="fill:#1c63b7;fill-opacity:1;fill-rule:nonzero;stroke:none"
         id="path14" /><path
         d="m 450.137,895.453 -92.793,-257.129 -10.977,55.371 0.012,-0.019 -32.758,168.105 c 0,0 -3.953,33.672 -46.172,33.672 H 114.063 l -1.797,-6.324 c 0,0 46.922,-9.758 101.804,-42.746 L 298.633,521.605 H 400.039 L 554.895,895.453 H 450.137"
         style="fill:#1c63b7;fill-opacity:1;fill-rule:nonzero;stroke:none"
         id="path16" /><path
         d="m 1108.59,653.852 51.15,139.906 28.77,-139.906 z m 107.1,-132.247 h 89.37 l -77.92,373.848 h -78.25 c -36.14,0 -44.93,-27.859 -44.93,-27.859 L 958.809,521.605 h 101.441 l 20.3,55.528 h 123.73 l 11.41,-55.528"
         style="fill:#1c63b7;fill-opacity:1;fill-rule:nonzero;stroke:none"
         id="path18" /><path
         d="m 966.418,805.551 13.887,80.293 c 0,0 -42.864,16.301 -87.539,16.301 -48.301,0 -163,-21.125 -163,-123.762 0,-96.59 134.621,-97.793 134.621,-148.504 0,-50.715 -120.742,-41.652 -160.586,-9.66 l -14.485,-83.922 c 0,0 43.457,-21.125 109.872,-21.125 66.41,0 166.625,34.402 166.625,127.988 0,97.195 -135.833,106.25 -135.833,148.504 0,42.266 94.786,36.84 136.438,13.887"
         style="fill:#1c63b7;fill-opacity:1;fill-rule:nonzero;stroke:none"
         id="path20" /><path
         d="m 346.379,693.676 -32.758,168.105 c 0,0 -3.953,33.672 -46.172,33.672 H 114.063 l -1.797,-6.324 c 0,0 73.73,-15.285 144.464,-72.531 67.594,-54.715 89.649,-122.922 89.649,-122.922"
         style="fill:#f89c22;fill-opacity:1;fill-rule:nonzero;stroke:none"
         id="path22" /></g></g></svg>
