<?xml version="1.0" standalone="no"?>
<!DOCTYPE svg PUBLIC "-//W3C//DTD SVG 20010904//EN"
 "http://www.w3.org/TR/2001/REC-SVG-20010904/DTD/svg10.dtd">
<svg version="1.0" xmlns="http://www.w3.org/2000/svg"
 width="125.000000pt" height="125.000000pt" viewBox="0 0 125.000000 125.000000"
 preserveAspectRatio="xMidYMid meet">
<metadata>
Created by potrace 1.14, written by Peter Selinger 2001-2017
</metadata>
<g transform="translate(0.000000,125.000000) scale(0.100000,-0.100000)"
fill="#000000" stroke="none">
<path d="M250 1149 c-8 -4 -30 -13 -47 -19 -18 -7 -33 -16 -33 -21 0 -5 -6 -9
-12 -9 -16 0 -89 -76 -81 -84 4 -3 2 -6 -4 -6 -14 0 -45 -78 -37 -92 4 -6 2
-8 -4 -5 -6 5 -11 -12 -14 -45 -4 -69 1 -120 12 -113 4 3 7 -3 5 -12 -1 -10 5
-27 14 -37 13 -16 13 -18 1 -12 -9 5 -8 2 2 -7 10 -8 15 -17 11 -20 -3 -4 2
-9 11 -13 9 -3 13 -11 9 -17 -4 -6 0 -8 10 -4 10 3 17 2 17 -2 0 -11 19 -9 39
3 8 5 16 4 20 -3 6 -8 15 -9 34 -2 15 6 27 7 27 2 0 -11 19 -9 39 3 8 5 16 4
20 -2 4 -6 17 -9 29 -5 12 3 20 9 17 13 -3 5 1 14 8 22 7 7 14 15 14 18 3 25
27 88 32 85 4 -2 8 6 8 18 1 12 7 23 13 25 5 2 10 8 10 13 0 6 -6 7 -12 3 -7
-4 -5 2 5 14 20 21 48 22 73 1 8 -7 13 -18 10 -26 -3 -7 -1 -13 5 -13 6 0 7
-4 4 -10 -3 -5 -1 -10 4 -10 6 0 11 -3 10 -7 -2 -16 14 -53 23 -53 5 0 7 -4 3
-9 -3 -5 -1 -12 5 -16 6 -4 8 -10 5 -15 -3 -4 2 -13 10 -20 7 -6 11 -18 8 -26
-3 -8 0 -14 6 -14 6 0 11 -9 11 -19 0 -11 5 -21 10 -23 6 -2 12 -14 13 -26 1
-20 3 -21 13 -8 6 9 13 14 15 11 3 -2 6 6 6 18 1 12 7 23 13 25 5 2 10 13 10
23 0 11 4 18 8 15 4 -2 9 5 9 17 1 12 7 23 13 25 5 2 10 10 10 18 0 30 40 84
62 84 13 -1 58 -30 45 -30 -4 0 7 -27 24 -60 17 -33 35 -58 39 -55 5 3 10 0
12 -6 2 -7 12 -7 31 0 15 6 27 7 27 2 0 -11 19 -9 39 3 8 5 16 4 20 -3 6 -8
15 -9 34 -2 15 6 27 7 27 2 0 -11 19 -9 39 3 8 5 17 3 23 -5 8 -12 10 -12 15
0 3 7 14 21 24 29 11 9 19 21 19 27 0 5 7 23 15 38 9 18 10 25 2 20 -9 -5 -8
-2 1 9 18 23 19 152 1 174 -8 9 -13 20 -12 23 4 12 -9 51 -18 51 -5 0 -9 7 -9
15 0 8 -4 15 -10 15 -5 0 -10 6 -10 13 0 8 -11 20 -25 27 -14 7 -25 17 -25 22
0 4 -7 8 -15 8 -8 0 -15 7 -15 16 0 8 -4 13 -9 10 -5 -3 -21 0 -36 8 -15 8
-34 12 -43 9 -10 -4 -13 -2 -8 6 6 9 -11 12 -73 10 -44 -1 -78 -6 -75 -10 3
-5 -2 -10 -10 -10 -34 -3 -67 -18 -87 -41 -9 -10 -20 -18 -23 -18 -4 0 -25
-18 -46 -40 -30 -31 -41 -37 -47 -27 -4 8 -18 19 -31 26 -12 7 -20 17 -16 23
4 7 3 8 -4 4 -7 -4 -12 -2 -12 3 0 6 -4 11 -10 11 -5 0 -21 11 -35 26 -14 14
-30 22 -35 19 -6 -3 -10 -1 -10 4 0 6 -8 11 -18 11 -10 0 -24 6 -31 13 -11 10
-12 9 -6 -3 8 -13 6 -13 -7 -2 -17 14 -122 15 -148 1z"/>
<path d="M442 705 c-1 -8 -3 -22 -4 -30 -1 -8 -5 -12 -10 -9 -7 5 -9 0 -8 -21
0 -3 -6 -18 -14 -34 -9 -16 -12 -32 -8 -36 4 -5 1 -5 -5 -1 -8 4 -13 1 -13 -8
0 -18 -57 -19 -79 -2 -11 8 -13 8 -8 -1 10 -16 -5 -24 -23 -13 -9 5 -19 5 -27
-2 -9 -8 -13 -7 -13 2 0 8 -3 10 -7 7 -3 -4 -13 -1 -21 6 -13 9 -14 9 -8 0 4
-8 1 -13 -8 -13 -9 0 -16 -5 -16 -11 0 -5 4 -7 10 -4 6 3 10 -1 10 -10 0 -9 5
-13 10 -10 5 3 10 1 10 -5 0 -13 57 -70 70 -70 6 0 10 -5 10 -11 0 -6 42 -53
94 -104 52 -52 91 -96 88 -99 -3 -4 1 -6 9 -6 8 0 23 -13 34 -29 10 -16 22
-28 25 -26 7 4 30 -22 24 -28 -13 -12 36 -32 74 -28 13 1 92 81 92 94 0 5 5 5
10 2 6 -3 10 -2 10 2 0 13 178 191 185 185 3 -3 5 0 5 7 0 7 29 42 65 78 36
36 65 71 65 77 0 6 -5 4 -10 -4 -5 -8 -10 -10 -10 -4 0 6 -19 9 -47 8 -26 -2
-54 2 -61 8 -10 9 -12 8 -10 -3 2 -8 -3 -12 -12 -10 -8 2 -34 3 -57 3 -24 0
-41 4 -38 8 3 5 1 11 -5 15 -5 3 -18 24 -28 46 l-19 41 -46 -91 c-25 -50 -43
-91 -39 -91 4 0 3 -4 -3 -8 -5 -4 -17 -20 -26 -36 -16 -28 -49 -45 -49 -25 0
6 -4 7 -10 4 -5 -3 -10 1 -10 9 0 9 -4 16 -10 16 -5 0 -10 6 -10 13 0 8 -6 27
-14 43 -8 16 -22 47 -31 69 -57 133 -80 170 -83 140z"/>
</g>
</svg>
